<?xml version="1.0" encoding="UTF-8"?>
<svg id="_图层_1" data-name="图层_1" xmlns="http://www.w3.org/2000/svg" version="1.1" viewBox="0 0 626 451">
  <!-- Generator: Adobe Illustrator 29.3.0, SVG Export Plug-In . SVG Version: 2.1.0 Build 146)  -->
  <defs>
    <style>
      .st0 {
        fill: #ff6d00;
      }

      .st1 {
        fill: #05f;
      }
    </style>
  </defs>
  <path class="st0" d="M625.72,197.23c-7.47-.67-14.64-.19-21.76-.21-43.8-.1-87.6.05-131.4.07-52.4.03-104.8.02-157.2,0-2.78,0-5.38.11-7.79,2-11.09,8.67-22.27,17.23-33.46,25.78-13.49,10.3-27.15,20.4-40.49,30.89-5.51,4.33-11.74,7.84-16.31,14.52h137.58c-5.28,36.23-45.33,92.38-110.19,103.62-57.79,10.02-120.68-8.35-155.41-74.92-26.8-51.36-20.69-122.11,27.82-168.59,22.51-21.58,48.99-35.49,80.19-38.61,46.28-4.64,87.71,6.4,121.02,41.1,20.07-14.46,39.44-28.41,59.07-42.55C356.28,52.09,268.72,3.12,177.22,19.11,85.01,35.22-3.87,126.58.16,233.79c-4.45,103.58,86.19,209.3,199.87,216.44,47.72,3,92.27-6.39,132.54-32.5,53.52-34.7,86.44-83.58,98.24-147.54h194.91v-72.96Z"/>
  <path class="st1" d="M625.72,16.1l-269.68.19c2.8,4.3,5.58,5.97,8.04,7.99,8.22,6.77,17.36,12.44,24.96,19.95,12.23,12.08,22.94,25.48,32.06,40.04,3.36,5.36,7.41,7.17,13.58,7.06,18.64-.33,37.29-.12,55.93-.12,44.1,0,88.2,0,132.29-.02.93,0,1.88.06,2.81.03V16.1Z"/>
  <path class="st1" d="M480.78,376.62c-15.2.09-30.41.25-45.61.54-2.78.05-5.44-.05-7.31,2.74-4.51,6.72-9.41,13.12-14.82,19.19-15.34,17.21-31.38,33.62-50.56,46.65-1.46.99-3.48,1.74-3.69,4.29h121.98v-73.41Z"/>
</svg>